<svg width="32" height="28" viewBox="0 0 32 28" fill="none" xmlns="http://www.w3.org/2000/svg">
<g filter="url(#filter0_d_10212_472)">
<path fill-rule="evenodd" clip-rule="evenodd" d="M5.46447 13.4645C6.40215 12.5268 7.67392 12 9 12H17C18.3261 12 19.5979 12.5268 20.5355 13.4645C21.4732 14.4021 22 15.6739 22 17V19C22 19.5523 21.5523 20 21 20C20.4477 20 20 19.5523 20 19V17C20 16.2044 19.6839 15.4413 19.1213 14.8787C18.5587 14.3161 17.7956 14 17 14H9C8.20435 14 7.44129 14.3161 6.87868 14.8787C6.31607 15.4413 6 16.2044 6 17V19C6 19.5523 5.55228 20 5 20C4.44772 20 4 19.5523 4 19V17C4 15.6739 4.52678 14.4021 5.46447 13.4645Z" fill="#4894FF"/>
<path fill-rule="evenodd" clip-rule="evenodd" d="M13 2C11.3431 2 10 3.34315 10 5C10 6.65685 11.3431 8 13 8C14.6569 8 16 6.65685 16 5C16 3.34315 14.6569 2 13 2ZM8 5C8 2.23858 10.2386 0 13 0C15.7614 0 18 2.23858 18 5C18 7.76142 15.7614 10 13 10C10.2386 10 8 7.76142 8 5Z" fill="#4894FF"/>
<path fill-rule="evenodd" clip-rule="evenodd" d="M23.0318 12.88C23.1698 12.3453 23.7153 12.0237 24.25 12.1618C25.3227 12.4387 26.273 13.0641 26.9517 13.9397C27.6304 14.8152 27.9992 15.8914 28 16.9993V19C28 19.5523 27.5523 20 27 20C26.4477 20 26 19.5523 26 19V17.0007C26 17.0008 26 17.0006 26 17.0007C25.9994 16.3361 25.7782 15.6902 25.371 15.165C24.9638 14.6396 24.3936 14.2644 23.75 14.0982C23.2153 13.9602 22.8937 13.4148 23.0318 12.88Z" fill="#4894FF"/>
<path fill-rule="evenodd" clip-rule="evenodd" d="M19.0312 0.881962C19.1682 0.346936 19.713 0.0242632 20.248 0.161251C21.3236 0.436628 22.2768 1.06213 22.9576 1.93914C23.6383 2.81615 24.0078 3.89479 24.0078 5.005C24.0078 6.11521 23.6383 7.19385 22.9576 8.07086C22.2768 8.94787 21.3236 9.57337 20.248 9.84875C19.713 9.98574 19.1682 9.66307 19.0312 9.12804C18.8943 8.59301 19.2169 8.04824 19.752 7.91125C20.3973 7.74603 20.9692 7.37073 21.3777 6.84452C21.7861 6.31831 22.0078 5.67113 22.0078 5.005C22.0078 4.33887 21.7861 3.69169 21.3777 3.16548C20.9692 2.63928 20.3973 2.26398 19.752 2.09875C19.2169 1.96176 18.8943 1.41699 19.0312 0.881962Z" fill="#4894FF"/>
</g>
<defs>
<filter id="filter0_d_10212_472" x="0" y="0" width="32" height="28" filterUnits="userSpaceOnUse" color-interpolation-filters="sRGB">
<feFlood flood-opacity="0" result="BackgroundImageFix"/>
<feColorMatrix in="SourceAlpha" type="matrix" values="0 0 0 0 0 0 0 0 0 0 0 0 0 0 0 0 0 0 127 0" result="hardAlpha"/>
<feOffset dy="4"/>
<feGaussianBlur stdDeviation="2"/>
<feComposite in2="hardAlpha" operator="out"/>
<feColorMatrix type="matrix" values="0 0 0 0 0 0 0 0 0 0 0 0 0 0 0 0 0 0 0.25 0"/>
<feBlend mode="normal" in2="BackgroundImageFix" result="effect1_dropShadow_10212_472"/>
<feBlend mode="normal" in="SourceGraphic" in2="effect1_dropShadow_10212_472" result="shape"/>
</filter>
</defs>
</svg>
